<?xml version="1.0" encoding="UTF-8" standalone="no"?>
<svg
   version="1.1"
   width="2330.1118"
   height="526.15039"
   viewBox="0 0 2330.1118 526.15038"
   id="svg31"
   sodipodi:docname="Color text - no background.svg"
   inkscape:version="1.1.2 (0a00cf5339, 2022-02-04)"
   xmlns:inkscape="http://www.inkscape.org/namespaces/inkscape"
   xmlns:sodipodi="http://sodipodi.sourceforge.net/DTD/sodipodi-0.dtd"
   xmlns:xlink="http://www.w3.org/1999/xlink"
   xmlns="http://www.w3.org/2000/svg"
   xmlns:svg="http://www.w3.org/2000/svg">
  <defs
     id="defs35">
    <linearGradient
       inkscape:collect="always"
       xlink:href="#SvgjsLinearGradient1279"
       id="linearGradient870"
       gradientTransform="scale(2.4513082,0.40794544)"
       x1="0.45420644"
       y1="28.822041"
       x2="70.354683"
       y2="28.822041"
       gradientUnits="userSpaceOnUse" />
    <linearGradient
       inkscape:collect="always"
       xlink:href="#SvgjsLinearGradient1279"
       id="linearGradient872"
       gradientTransform="scale(2.4513082,0.40794544)"
       x1="0.45420644"
       y1="28.822041"
       x2="70.354683"
       y2="28.822041"
       gradientUnits="userSpaceOnUse" />
    <defs
       id="SvgjsDefs1271">
      <linearGradient
         id="SvgjsLinearGradient1276">
        <stop
           id="SvgjsStop1277"
           stop-color="#ef4136"
           offset="0" />
        <stop
           id="SvgjsStop1278"
           stop-color="#fbb040"
           offset="1" />
      </linearGradient>
      <linearGradient
         id="SvgjsLinearGradient1279">
        <stop
           id="SvgjsStop1280"
           stop-color="#ef4136"
           offset="0" />
        <stop
           id="SvgjsStop1281"
           stop-color="#fbb040"
           offset="1" />
      </linearGradient>
    </defs>
  </defs>
  <sodipodi:namedview
     id="namedview33"
     pagecolor="#ffffff"
     bordercolor="#666666"
     borderopacity="1.0"
     inkscape:pageshadow="2"
     inkscape:pageopacity="0.0"
     inkscape:pagecheckerboard="0"
     showgrid="false"
     lock-margins="true"
     fit-margin-top="83"
     fit-margin-left="83"
     fit-margin-right="83"
     fit-margin-bottom="83"
     inkscape:zoom="0.42310864"
     inkscape:cx="745.67136"
     inkscape:cy="261.16224"
     inkscape:window-width="2944"
     inkscape:window-height="1376"
     inkscape:window-x="70"
     inkscape:window-y="27"
     inkscape:window-maximized="1"
     inkscape:current-layer="svg31" />
  <g
     id="SvgjsG1273"
     featureKey="nameFeature-0"
     transform="matrix(12.629951,0,0,12.629951,68.937813,-65.50069)"
     fill="url(#SvgjsLinearGradient1279)"
     style="fill:url(#linearGradient872)">
    <path
       d="m 8.3008,33.0859 c -1.9531,-1.9531 -2.9297,-4.31 -2.9297,-7.0703 0,-2.7603 0.97656,-5.1172 2.9297,-7.0703 1.9531,-1.9662 4.31,-2.9492 7.0703,-2.9492 1.6927,0 3.2748,0.40365 4.7461,1.2109 v -4.6484 c -1.5365,-0.53385 -3.1186,-0.80078 -4.7461,-0.80078 -3.9322,0 -7.2916,1.3932 -10.078,4.1797 -2.7864,2.7865 -4.1797,6.1459 -4.1797,10.078 0,3.9321 1.3932,7.2916 4.1797,10.078 2.7865,2.7864 6.1459,4.1797 10.078,4.1797 1.6276,0 3.2096,-0.27344 4.7461,-0.82031 v -4.6289 c -1.4713,0.79428 -3.0533,1.1914 -4.7461,1.1914 -2.7604,0 -5.1172,-0.97656 -7.0703,-2.9297 z M 39.277062,12.051 v 11.836 h -11.367 V 12.09 h -4.2383 V 40 h 4.2383 V 28.125 h 11.367 V 40 h 4.238301 V 12.051 Z M 64.18,12.051 46.504,40 h 5.0195 l 4.1211,-6.5234 h 9.4922 V 40 h 4.2578 V 12.051 h -5.2148 z m 0.957,6.426 v 10.762 h -6.8164 z m 14.726306,0.468 c -1.9531,1.9531 -2.9297,4.31 -2.9297,7.0703 0,2.7603 0.97656,5.1172 2.9297,7.0703 1.95314,1.9531 4.31,2.9297 7.0703,2.9297 2.7603,0 5.1172,-0.97656 7.0703,-2.9297 1.9531,-1.95314 2.9297,-4.31 2.9297,-7.0703 0,-2.7603 -0.97656,-5.1172 -2.9297,-7.0703 -1.95314,-1.9531 -4.31,-2.9297 -7.0703,-2.9297 -2.7603,0 -5.1172,0.97656 -7.0703,2.9297 z m -3.0078,17.1487 c -2.7865,-2.7865 -4.1797,-6.1459 -4.1797,-10.078 0,-3.9321 1.3932,-7.2916 4.1797,-10.078 2.7865,-2.7864 6.1459,-4.1797 10.078,-4.1797 3.9321,0 7.2916,1.3932 10.078,4.1797 2.7864,2.7865 4.179704,6.1459 4.179704,10.078 0,3.9321 -1.393204,7.2916 -4.179704,10.078 -2.7865,2.7864 -6.1459,4.1797 -10.078,4.1797 -3.9321,0 -7.2916,-1.3932 -10.078,-4.1797 z M 100.93751,12.051 v 4.2383 h 5.918 v 23.711 h 4.2578 v -23.711 h 5.918 V 12.051 h -16.094 z m 24.17968,0.039 h -4.2383 V 40 h 4.2383 z m 10.58595,20.9959 c -1.9531,-1.9531 -2.9297,-4.31 -2.9297,-7.0703 0,-2.7603 0.97656,-5.1172 2.9297,-7.0703 1.9531,-1.9662 4.31,-2.9492 7.0703,-2.9492 1.6927,0 3.2748,0.40365 4.7461,1.2109 v -4.6484 c -1.5365,-0.53385 -3.1186,-0.80078 -4.7461,-0.80078 -3.9322,0 -7.2916,1.3932 -10.078,4.1797 -2.7864,2.7865 -4.1797,6.1459 -4.1797,10.078 0,3.9321 1.3932,7.2916 4.1797,10.078 2.7865,2.7864 6.1459,4.1797 10.078,4.1797 1.6276,0 3.2096,-0.27344 4.7461,-0.82031 v -4.6289 c -1.4713,0.79428 -3.0533,1.1914 -4.7461,1.1914 -2.7604,0 -5.1172,-0.97656 -7.0703,-2.9297 z M 167.24641,12.051 149.57041,40 h 5.0195 l 4.1211,-6.5234 h 9.4922 V 40 h 4.2578 V 12.051 h -5.2148 z m 0.957,6.426 v 10.762 h -6.8164 z"
       id="path26"
       style="fill:url(#linearGradient870)" />
  </g>
</svg>
