
        <svg xmlns="http://www.w3.org/2000/svg" xmlns:xlink="http://www.w3.org/1999/xlink" version="1.1" width="3162.3083859332733" height="923.1289449954913" viewBox="0 0 3162.3083859332733 923.1289449954913">
			
			<g transform="scale(8.11541929666366) translate(10, 10)">
				<defs id="SvgjsDefs1271"><linearGradient id="SvgjsLinearGradient1276"><stop id="SvgjsStop1277" stop-color="#ef4136" offset="0"/><stop id="SvgjsStop1278" stop-color="#fbb040" offset="1"/></linearGradient><linearGradient id="SvgjsLinearGradient1279"><stop id="SvgjsStop1280" stop-color="#ef4136" offset="0"/><stop id="SvgjsStop1281" stop-color="#fbb040" offset="1"/></linearGradient></defs><g id="SvgjsG1272" featureKey="symbolFeature-0" transform="matrix(1.1574074074074074,0,0,1.1574074074074074,-11.030091179741754,-16.238426720654523)" fill="#fff"><path xmlns="http://www.w3.org/2000/svg" d="M14.03,50.03l13.5,13.5l13.5-13.5l-13.5-13.5L14.03,50.03 M27.53,32.03l18,18l-18,18l-18-18L27.53,32.03" style="fill-rule: evenodd; clip-rule: evenodd;"/><path xmlns="http://www.w3.org/2000/svg" d="M27.53,54.53l4.5-4.5l-4.5-4.5l-4.5,4.5L27.53,54.53 M18.53,50.03l9-9l9,9l-9,9L18.53,50.03" style="fill-rule: evenodd; clip-rule: evenodd;"/><path xmlns="http://www.w3.org/2000/svg" d="M68.03,72.53l-18-18l-18,18l18,18L68.03,72.53 M72.53,72.53l-22.5,22.5l-22.5-22.5l22.5-22.5L72.53,72.53" style="fill-rule: evenodd; clip-rule: evenodd;"/><path xmlns="http://www.w3.org/2000/svg" d="M59.03,72.53l-9-9l-9,9l9,9L59.03,72.53 M63.53,72.53l-13.5,13.5l-13.5-13.5l13.5-13.5L63.53,72.53" style="fill-rule: evenodd; clip-rule: evenodd;"/><polyline xmlns="http://www.w3.org/2000/svg" points="54.53,72.53 50.03,77.03 45.53,72.53 50.03,68.03 54.53,72.53 " style="fill-rule: evenodd; clip-rule: evenodd;"/><path xmlns="http://www.w3.org/2000/svg" d="M41.03,27.53l9,9l9-9l-9-9L41.03,27.53 M36.53,27.53l13.5-13.5l13.5,13.5l-13.5,13.5L36.53,27.53" style="fill-rule: evenodd; clip-rule: evenodd;"/><polyline xmlns="http://www.w3.org/2000/svg" points="45.53,27.53 50.03,23.03 54.53,27.53 50.03,32.03 45.53,27.53 " style="fill-rule: evenodd; clip-rule: evenodd;"/><path xmlns="http://www.w3.org/2000/svg" d="M72.53,45.53l-4.5,4.5l4.5,4.5l4.5-4.5L72.53,45.53 M81.53,50.03l-9,9l-9-9l9-9L81.53,50.03" style="fill-rule: evenodd; clip-rule: evenodd;"/></g><g id="SvgjsG1273" featureKey="nameFeature-0" transform="matrix(1.5562906869647475,0,0,1.5562906869647475,101.26722375015095,6.7014199703944755)" fill="#fff"><path d="M8.3008 33.0859 c-1.9531 -1.9531 -2.9297 -4.31 -2.9297 -7.0703 s0.97656 -5.1172 2.9297 -7.0703 c1.9531 -1.9662 4.31 -2.9492 7.0703 -2.9492 c1.6927 0 3.2748 0.40365 4.7461 1.2109 l0 -4.6484 c-1.5365 -0.53385 -3.1186 -0.80078 -4.7461 -0.80078 c-3.9322 0 -7.2916 1.3932 -10.078 4.1797 s-4.1797 6.1459 -4.1797 10.078 s1.3932 7.2916 4.1797 10.078 s6.1459 4.1797 10.078 4.1797 c1.6276 0 3.2096 -0.27344 4.7461 -0.82031 l0 -4.6289 c-1.4713 0.79428 -3.0533 1.1914 -4.7461 1.1914 c-2.7604 0 -5.1172 -0.97656 -7.0703 -2.9297 z M39.2770625 12.050999999999998 l0 11.836 l-11.367 0 l0 -11.797 l-4.2383 0 l0 27.91 l4.2383 0 l0 -11.875 l11.367 0 l0 11.875 l4.2383 0 l0 -27.949 l-4.2383 0 z M64.18 12.050999999999998 l-17.676 27.949 l5.0195 0 l4.1211 -6.5234 l9.4922 0 l0 6.5234 l4.2578 0 l0 -27.949 l-5.2148 0 z M65.137 18.477 l0 10.762 l-6.8164 0 z M79.86330625 18.945 c-1.9531 1.9531 -2.9297 4.31 -2.9297 7.0703 s0.97656 5.1172 2.9297 7.0703 s4.31 2.9297 7.0703 2.9297 s5.1172 -0.97656 7.0703 -2.9297 s2.9297 -4.31 2.9297 -7.0703 s-0.97656 -5.1172 -2.9297 -7.0703 s-4.31 -2.9297 -7.0703 -2.9297 s-5.1172 0.97656 -7.0703 2.9297 z M76.85550625 36.0937 c-2.7865 -2.7865 -4.1797 -6.1459 -4.1797 -10.078 s1.3932 -7.2916 4.1797 -10.078 s6.1459 -4.1797 10.078 -4.1797 s7.2916 1.3932 10.078 4.1797 s4.1797 6.1459 4.1797 10.078 s-1.3932 7.2916 -4.1797 10.078 s-6.1459 4.1797 -10.078 4.1797 s-7.2916 -1.3932 -10.078 -4.1797 z M100.9375125 12.050999999999998 l0 4.2383 l5.918 0 l0 23.711 l4.2578 0 l0 -23.711 l5.918 0 l0 -4.2383 l-16.094 0 z M125.11719375 12.09 l-4.2383 0 l0 27.91 l4.2383 0 l0 -27.91 z M135.70314375 33.0859 c-1.9531 -1.9531 -2.9297 -4.31 -2.9297 -7.0703 s0.97656 -5.1172 2.9297 -7.0703 c1.9531 -1.9662 4.31 -2.9492 7.0703 -2.9492 c1.6927 0 3.2748 0.40365 4.7461 1.2109 l0 -4.6484 c-1.5365 -0.53385 -3.1186 -0.80078 -4.7461 -0.80078 c-3.9322 0 -7.2916 1.3932 -10.078 4.1797 s-4.1797 6.1459 -4.1797 10.078 s1.3932 7.2916 4.1797 10.078 s6.1459 4.1797 10.078 4.1797 c1.6276 0 3.2096 -0.27344 4.7461 -0.82031 l0 -4.6289 c-1.4713 0.79428 -3.0533 1.1914 -4.7461 1.1914 c-2.7604 0 -5.1172 -0.97656 -7.0703 -2.9297 z M167.24640625 12.050999999999998 l-17.676 27.949 l5.0195 0 l4.1211 -6.5234 l9.4922 0 l0 6.5234 l4.2578 0 l0 -27.949 l-5.2148 0 z M168.20340625 18.477 l0 10.762 l-6.8164 0 z"/></g>
			</g>
		</svg>
	