<?xml version="1.0" encoding="UTF-8" standalone="no"?>
<svg
   version="1.1"
   width="842.28491"
   height="926.82056"
   viewBox="0 0 842.28492 926.82053"
   id="svg874"
   sodipodi:docname="White logo - no bg no text.svg"
   inkscape:version="1.1.2 (0a00cf5339, 2022-02-04)"
   xmlns:inkscape="http://www.inkscape.org/namespaces/inkscape"
   xmlns:sodipodi="http://sodipodi.sourceforge.net/DTD/sodipodi-0.dtd"
   xmlns="http://www.w3.org/2000/svg"
   xmlns:svg="http://www.w3.org/2000/svg">
  <defs
     id="defs878">
    <defs
       id="SvgjsDefs1271">
      <linearGradient
         id="SvgjsLinearGradient1276">
        <stop
           id="SvgjsStop1277"
           stop-color="#ef4136"
           offset="0" />
        <stop
           id="SvgjsStop1278"
           stop-color="#fbb040"
           offset="1" />
      </linearGradient>
      <linearGradient
         id="SvgjsLinearGradient1279">
        <stop
           id="SvgjsStop1280"
           stop-color="#ef4136"
           offset="0" />
        <stop
           id="SvgjsStop1281"
           stop-color="#fbb040"
           offset="1" />
      </linearGradient>
    </defs>
  </defs>
  <sodipodi:namedview
     id="namedview876"
     pagecolor="#ffffff"
     bordercolor="#666666"
     borderopacity="1.0"
     inkscape:pageshadow="2"
     inkscape:pageopacity="0.0"
     inkscape:pagecheckerboard="0"
     showgrid="false"
     lock-margins="true"
     fit-margin-top="83"
     fit-margin-left="83"
     fit-margin-right="83"
     fit-margin-bottom="83"
     inkscape:zoom="0.42310864"
     inkscape:cx="1582.3359"
     inkscape:cy="464.41972"
     inkscape:window-width="2944"
     inkscape:window-height="1376"
     inkscape:window-x="70"
     inkscape:window-y="27"
     inkscape:window-maximized="1"
     inkscape:current-layer="svg874" />
  <g
     id="SvgjsG1272"
     featureKey="symbolFeature-0"
     transform="matrix(9.3928464,0,0,9.3928464,-6.5138262,-48.781635)"
     fill="#ffffff">
    <path
       d="m 14.03,50.03 13.5,13.5 13.5,-13.5 -13.5,-13.5 -13.5,13.5 m 13.5,-18 18,18 -18,18 -18,-18 18,-18"
       style="clip-rule:evenodd;fill-rule:evenodd"
       id="path852" />
    <path
       d="m 27.53,54.53 4.5,-4.5 -4.5,-4.5 -4.5,4.5 4.5,4.5 m -9,-4.5 9,-9 9,9 -9,9 -9,-9"
       style="clip-rule:evenodd;fill-rule:evenodd"
       id="path854" />
    <path
       d="m 68.03,72.53 -18,-18 -18,18 18,18 18,-18 m 4.5,0 -22.5,22.5 -22.5,-22.5 22.5,-22.5 22.5,22.5"
       style="clip-rule:evenodd;fill-rule:evenodd"
       id="path856" />
    <path
       d="m 59.03,72.53 -9,-9 -9,9 9,9 9,-9 m 4.5,0 -13.5,13.5 -13.5,-13.5 13.5,-13.5 13.5,13.5"
       style="clip-rule:evenodd;fill-rule:evenodd"
       id="path858" />
    <polyline
       points="54.53,72.53 50.03,77.03 45.53,72.53 50.03,68.03 54.53,72.53 "
       style="clip-rule:evenodd;fill-rule:evenodd"
       id="polyline860" />
    <path
       d="m 41.03,27.53 9,9 9,-9 -9,-9 -9,9 m -4.5,0 13.5,-13.5 13.5,13.5 -13.5,13.5 -13.5,-13.5"
       style="clip-rule:evenodd;fill-rule:evenodd"
       id="path862" />
    <polyline
       points="45.53,27.53 50.03,23.03 54.53,27.53 50.03,32.03 45.53,27.53 "
       style="clip-rule:evenodd;fill-rule:evenodd"
       id="polyline864" />
    <path
       d="m 72.53,45.53 -4.5,4.5 4.5,4.5 4.5,-4.5 -4.5,-4.5 m 9,4.5 -9,9 -9,-9 9,-9 9,9"
       style="clip-rule:evenodd;fill-rule:evenodd"
       id="path866" />
  </g>
</svg>
